<svg width="126" height="15" viewBox="0 0 126 15" fill="none" xmlns="http://www.w3.org/2000/svg">
<path d="M7.74799 0.49998C8.81599 0.49998 9.73999 0.68598 10.52 1.05798C11.3 1.42998 11.894 1.95198 12.302 2.62398C12.722 3.29598 12.932 4.07598 12.932 4.96398C12.932 5.85198 12.722 6.63198 12.302 7.30398C11.894 7.96398 11.3 8.48598 10.52 8.86998C9.73999 9.24198 8.81599 9.42798 7.74799 9.42798H1.78999V6.90798H7.58599C8.29399 6.90798 8.84599 6.73398 9.24199 6.38598C9.64999 6.03798 9.85399 5.56398 9.85399 4.96398C9.85399 4.35198 9.64999 3.87798 9.24199 3.54198C8.84599 3.19398 8.29399 3.01998 7.58599 3.01998H2.05999L3.44599 1.56198V14H0.385986V0.49998H7.74799Z" fill="#252525"/>
<path d="M21.9302 14.27C20.3582 14.27 18.9782 13.976 17.7902 13.388C16.6142 12.8 15.6962 11.984 15.0362 10.94C14.3762 9.88398 14.0462 8.65398 14.0462 7.24998C14.0462 5.84598 14.3762 4.62198 15.0362 3.57798C15.6962 2.52198 16.6142 1.69998 17.7902 1.11198C18.9782 0.523981 20.3582 0.22998 21.9302 0.22998C23.5022 0.22998 24.8762 0.523981 26.0522 1.11198C27.2402 1.69998 28.1642 2.52198 28.8242 3.57798C29.4842 4.62198 29.8142 5.84598 29.8142 7.24998C29.8142 8.65398 29.4842 9.88398 28.8242 10.94C28.1642 11.984 27.2402 12.8 26.0522 13.388C24.8762 13.976 23.5022 14.27 21.9302 14.27ZM21.9302 11.552C22.9142 11.552 23.7602 11.378 24.4682 11.03C25.1882 10.682 25.7402 10.184 26.1242 9.53598C26.5202 8.88798 26.7182 8.12598 26.7182 7.24998C26.7182 6.37398 26.5202 5.61198 26.1242 4.96398C25.7402 4.31598 25.1882 3.81798 24.4682 3.46998C23.7602 3.12198 22.9142 2.94798 21.9302 2.94798C20.9582 2.94798 20.1122 3.12198 19.3922 3.46998C18.6722 3.81798 18.1142 4.31598 17.7182 4.96398C17.3342 5.61198 17.1422 6.37398 17.1422 7.24998C17.1422 8.12598 17.3342 8.88798 17.7182 9.53598C18.1142 10.184 18.6722 10.682 19.3922 11.03C20.1122 11.378 20.9582 11.552 21.9302 11.552Z" fill="#252525"/>
<path d="M34.0451 6.49398H39.2471C39.9311 6.49398 40.4711 6.33798 40.8671 6.02598C41.2751 5.70198 41.4791 5.25798 41.4791 4.69398C41.4791 4.12998 41.2751 3.69198 40.8671 3.37998C40.4711 3.06798 39.9311 2.91198 39.2471 2.91198H33.5951L34.9811 1.34598V14H31.9211V0.49998H39.6071C40.5911 0.49998 41.4551 0.67998 42.1991 1.03998C42.9431 1.38798 43.5251 1.87398 43.9451 2.49798C44.3651 3.12198 44.5751 3.85398 44.5751 4.69398C44.5751 5.52198 44.3651 6.24798 43.9451 6.87198C43.5251 7.49598 42.9431 7.98798 42.1991 8.34798C41.4551 8.69598 40.5911 8.86998 39.6071 8.86998H34.0451V6.49398ZM36.3851 7.68198H39.8771L44.9711 14H41.3891L36.3851 7.68198Z" fill="#252525"/>
<path d="M50.7251 1.86798H53.7671V14H50.7251V1.86798ZM45.3431 0.49998H59.1311V3.19998H45.3431V0.49998Z" fill="#252525"/>
<path d="M62.3132 6.22398H72.0692V8.83398H62.3132V6.22398ZM72.3752 0.49998V3.12798H62.3492L63.8972 1.56198V14H60.8372V0.49998H72.3752Z" fill="#252525"/>
<path d="M81.5024 14.27C79.9304 14.27 78.5504 13.976 77.3624 13.388C76.1864 12.8 75.2684 11.984 74.6084 10.94C73.9484 9.88398 73.6184 8.65398 73.6184 7.24998C73.6184 5.84598 73.9484 4.62198 74.6084 3.57798C75.2684 2.52198 76.1864 1.69998 77.3624 1.11198C78.5504 0.523981 79.9304 0.22998 81.5024 0.22998C83.0744 0.22998 84.4484 0.523981 85.6244 1.11198C86.8124 1.69998 87.7364 2.52198 88.3964 3.57798C89.0564 4.62198 89.3864 5.84598 89.3864 7.24998C89.3864 8.65398 89.0564 9.88398 88.3964 10.94C87.7364 11.984 86.8124 12.8 85.6244 13.388C84.4484 13.976 83.0744 14.27 81.5024 14.27ZM81.5024 11.552C82.4864 11.552 83.3324 11.378 84.0404 11.03C84.7604 10.682 85.3124 10.184 85.6964 9.53598C86.0924 8.88798 86.2904 8.12598 86.2904 7.24998C86.2904 6.37398 86.0924 5.61198 85.6964 4.96398C85.3124 4.31598 84.7604 3.81798 84.0404 3.46998C83.3324 3.12198 82.4864 2.94798 81.5024 2.94798C80.5304 2.94798 79.6844 3.12198 78.9644 3.46998C78.2444 3.81798 77.6864 4.31598 77.2904 4.96398C76.9064 5.61198 76.7144 6.37398 76.7144 7.24998C76.7144 8.12598 76.9064 8.88798 77.2904 9.53598C77.6864 10.184 78.2444 10.682 78.9644 11.03C79.6844 11.378 80.5304 11.552 81.5024 11.552Z" fill="#252525"/>
<path d="M94.5534 0.49998V12.65L93.1674 11.3H103.301V14H91.4934V0.49998H94.5534Z" fill="#252525"/>
<path d="M105.011 0.49998H108.071V14H105.011V0.49998Z" fill="#252525"/>
<path d="M118.047 14.27C116.475 14.27 115.095 13.976 113.907 13.388C112.731 12.8 111.813 11.984 111.153 10.94C110.493 9.88398 110.163 8.65398 110.163 7.24998C110.163 5.84598 110.493 4.62198 111.153 3.57798C111.813 2.52198 112.731 1.69998 113.907 1.11198C115.095 0.523981 116.475 0.22998 118.047 0.22998C119.619 0.22998 120.993 0.523981 122.169 1.11198C123.357 1.69998 124.281 2.52198 124.941 3.57798C125.601 4.62198 125.931 5.84598 125.931 7.24998C125.931 8.65398 125.601 9.88398 124.941 10.94C124.281 11.984 123.357 12.8 122.169 13.388C120.993 13.976 119.619 14.27 118.047 14.27ZM118.047 11.552C119.031 11.552 119.877 11.378 120.585 11.03C121.305 10.682 121.857 10.184 122.241 9.53598C122.637 8.88798 122.835 8.12598 122.835 7.24998C122.835 6.37398 122.637 5.61198 122.241 4.96398C121.857 4.31598 121.305 3.81798 120.585 3.46998C119.877 3.12198 119.031 2.94798 118.047 2.94798C117.075 2.94798 116.229 3.12198 115.509 3.46998C114.789 3.81798 114.231 4.31598 113.835 4.96398C113.451 5.61198 113.259 6.37398 113.259 7.24998C113.259 8.12598 113.451 8.88798 113.835 9.53598C114.231 10.184 114.789 10.682 115.509 11.03C116.229 11.378 117.075 11.552 118.047 11.552Z" fill="#252525"/>
</svg>
